<mxfile host="app.diagrams.net" modified="2023-08-18T17:40:15.872Z" agent="Mozilla/5.0 (Windows NT 10.0; Win64; x64) AppleWebKit/537.36 (KHTML, like Gecko) Chrome/115.0.0.0 Safari/537.36" etag="GHsbO-AjY4-4kuo-GTyF" version="21.6.8" type="device">
  <diagram name="Page-1" id="Kno3WRS3qNQCIMM6buzK">
    <mxGraphModel dx="521" dy="521" grid="1" gridSize="10" guides="1" tooltips="1" connect="1" arrows="1" fold="1" page="1" pageScale="1" pageWidth="850" pageHeight="1100" math="0" shadow="0">
      <root>
        <mxCell id="0" />
        <mxCell id="1" parent="0" />
        <mxCell id="8mY3YjzfxCu9FBSkBWgC-4" value="" style="edgeStyle=orthogonalEdgeStyle;rounded=0;orthogonalLoop=1;jettySize=auto;html=1;" edge="1" parent="1" source="8mY3YjzfxCu9FBSkBWgC-2" target="8mY3YjzfxCu9FBSkBWgC-3">
          <mxGeometry relative="1" as="geometry" />
        </mxCell>
        <mxCell id="8mY3YjzfxCu9FBSkBWgC-2" value="start&amp;nbsp;" style="strokeWidth=2;html=1;shape=mxgraph.flowchart.start_1;whiteSpace=wrap;" vertex="1" parent="1">
          <mxGeometry x="170" y="50" width="100" height="60" as="geometry" />
        </mxCell>
        <mxCell id="8mY3YjzfxCu9FBSkBWgC-3" value="" style="shape=parallelogram;perimeter=parallelogramPerimeter;whiteSpace=wrap;html=1;fixedSize=1;strokeWidth=2;" vertex="1" parent="1">
          <mxGeometry x="160" y="150" width="120" height="60" as="geometry" />
        </mxCell>
      </root>
    </mxGraphModel>
  </diagram>
</mxfile>
